# xmcd
#
# Track frame offsets:
#	150
#	19772
#	40349
#	54614
#	68946
#	85278
#	104349
#	121011
#	140917
#	159345
#	174937
#	191628
#
# Disc length: 2814 seconds
#
# Revision: 0
# Processed by: cddbd v1.5.2PL0 Copyright (c) Steve Scherf et al.
# Submitted via: EasyCDDAExtractor 16.0.6.1
#
DISCID=a10afc0c
DTITLE=Βασίλης Παπακωνσταντίνου - Αφετηρία
DYEAR=2012
DGENRE=Σύνχρωνα
TTITLE0=Το ποντίκι και ο αετός (Β.Παπακωνσταντίνου and Κίτρινα Ποδήλατα)
TTITLE1=Μονόλογος στο μπαρ (Βασίλης Παπακωνσταντίνου)
TTITLE2=Καινούργια μέρα (Βασίλης Παπακωνσταντίνου)
TTITLE3=Δελτίο των 8 (Βασίλης Παπακωνσταντίνου)
TTITLE4=Όλα σου τα μάγια (Βασίλης Παπακωνσταντίνου)
TTITLE5=Σε κάθε βήμα (Βασίλης Παπακωνσταντίνου)
TTITLE6=Φάρμακα και βηταμίνες (Βασίλης Παπακωνσταντίνου)
TTITLE7=Στροφή (Βασίλης Παπακωνσταντίνου)
TTITLE8=Ελεύθερος και μόνος (Βασίλης Παπακωνσταντίνου)
TTITLE9=Αφετηρία (Βασίλης Παπακωνσταντίνου)
TTITLE10=Οι μέρες που δικάζουν (Βασίλης Παπακωνσταντίνου)
TTITLE11=Θα πάμε (Βασίλης Παπακωνσταντίνου)
EXTD=
EXTT0=
EXTT1=
EXTT2=
EXTT3=
EXTT4=
EXTT5=
EXTT6=
EXTT7=
EXTT8=
EXTT9=
EXTT10=
EXTT11=
PLAYORDER=
